<?xml version="1.0" standalone="no"?>
<!DOCTYPE svg PUBLIC "-//W3C//DTD SVG 20010904//EN"
 "http://www.w3.org/TR/2001/REC-SVG-20010904/DTD/svg10.dtd">
<svg version="1.0" xmlns="http://www.w3.org/2000/svg"
 width="700.000000pt" height="700.000000pt" viewBox="0 0 700.000000 700.000000"
 preserveAspectRatio="xMidYMid meet">
<metadata>
Created by potrace 1.11, written by Peter Selinger 2001-2013
</metadata>
<g transform="translate(0.000000,700.000000) scale(0.100000,-0.100000)"
fill="#000000" stroke="none">
<path d="M1509 6996 c-2 -2 -28 -7 -57 -10 -209 -25 -417 -123 -559 -264 -101
-100 -165 -213 -202 -357 -20 -79 -20 -100 -21 -1647 0 -863 3 -1568 7 -1567
5 0 39 46 76 102 38 56 115 167 172 247 58 80 124 174 149 210 25 36 254 360
509 720 l463 655 399 3 c395 2 398 2 384 -18 -21 -30 -803 -1193 -1294 -1925
-442 -659 -770 -1147 -992 -1477 l-193 -288 517 0 518 0 22 33 c23 35 135 198
221 322 31 44 203 294 382 555 180 261 406 590 503 730 97 140 204 297 239
348 35 51 68 98 73 105 6 7 41 57 78 112 38 55 109 159 158 230 120 174 139
202 227 330 42 61 115 166 162 235 48 69 117 170 155 225 38 55 87 127 110
160 23 33 162 236 310 450 147 215 271 394 275 398 6 7 779 11 787 4 2 -3 -61
-98 -141 -213 -79 -115 -367 -533 -639 -929 -272 -396 -505 -733 -517 -750
-12 -16 -66 -95 -120 -175 -224 -328 -362 -527 -380 -547 -5 -7 -10 -14 -10
-17 0 -2 -69 -105 -154 -228 -235 -340 -249 -360 -378 -548 -67 -96 -148 -215
-182 -264 -33 -49 -86 -125 -116 -170 -31 -45 -201 -292 -380 -551 -178 -259
-353 -513 -389 -565 -35 -52 -99 -144 -141 -205 -42 -60 -112 -162 -155 -225
-43 -63 -93 -135 -110 -160 -17 -25 -35 -51 -39 -57 -6 -10 104 -13 536 -13
l543 0 30 48 c30 46 464 693 750 1117 397 589 531 789 545 811 15 23 133 199
630 939 134 198 306 455 383 570 77 116 143 214 147 218 5 5 178 9 386 9 448
-1 422 0 409 -10 -5 -4 -39 -50 -74 -102 -73 -108 -306 -452 -393 -580 -32
-47 -62 -92 -68 -100 -5 -8 -36 -53 -68 -100 -32 -47 -114 -168 -183 -270
-230 -339 -423 -624 -516 -760 -50 -74 -153 -225 -227 -335 -74 -110 -180
-266 -235 -347 -56 -81 -101 -149 -101 -151 0 -1 512 -2 1138 -1 1271 1 1207
-2 1381 73 288 124 498 392 555 707 12 67 14 418 15 2294 0 1370 -3 2240 -9
2282 -43 294 -253 534 -555 633 -159 52 4 49 -2461 52 -1254 2 -2282 1 -2285
-1z"/>
</g>
</svg>
